# xmcd
#
# Track frame offsets:
#	150
#	18185
#	34592
#	48712
#	64325
#	79212
#	90609
#	108054
#	123156
#	138809
#	155004
#	170913
#
# Disc length: 2469 seconds
#
# Revision: 0
# Processed by: cddbd v1.5.2PL0 Copyright (c) Steve Scherf et al.
# Submitted via: audiograbber 1.83.01
#
DISCID=9809a30c
DTITLE=Dolly Parton - Slow Dancing With The Moon
DYEAR=1993
DGENRE=Country
TTITLE0=Full Circle
TTITLE1=Romeo
TTITLE2=(You Got MeOver) A Heartache
TTITLE3=What Will Baby Be
TTITLE4=More Where That Came From
TTITLE5=Put A Little Love In Your Heart
TTITLE6=Why Can't We
TTITLE7=I'll Make Your Bed
TTITLE8=Whenever Forever Comes
TTITLE9=Cross My Heart
TTITLE10=Slow Dancing With The Moon
TTITLE11=High And Mighty
EXTD=
EXTT0=
EXTT1=
EXTT2=
EXTT3=
EXTT4=
EXTT5=
EXTT6=
EXTT7=
EXTT8=
EXTT9=
EXTT10=
EXTT11=
PLAYORDER=
